HIERARCHY
ROOT joint_Root
{
	OFFSET 0.0 0.0 0.0
	CHANNELS 6 Xposition Yposition Zposition Zrotation Xrotation Yrotation 
	JOINT Hips
	{
		OFFSET -17.1583 93.1646 452.98
		CHANNELS 6 Xposition Yposition Zposition Zrotation Xrotation Yrotation 
		JOINT Spine
		{
			OFFSET 15.7357 0.0 0.0
			CHANNELS 6 Xposition Yposition Zposition Zrotation Xrotation Yrotation 
			JOINT Chest
			{
				OFFSET 8.98455 -0.406207 0.0
				CHANNELS 6 Xposition Yposition Zposition Zrotation Xrotation Yrotation 
				JOINT Neck
				{
					OFFSET 16.3773 0.0 0.0
					CHANNELS 6 Xposition Yposition Zposition Zrotation Xrotation Yrotation 
					JOINT Head
					{
						OFFSET 6.45672 0.0 0.0
						CHANNELS 6 Xposition Yposition Zposition Zrotation Xrotation Yrotation 
						End Site
						{
							OFFSET 0.0 0.0 0.0
						}
					}
				}
				JOINT Shoulder_L
				{
					OFFSET 12.9942 -0.242716 4.98039
					CHANNELS 6 Xposition Yposition Zposition Zrotation Xrotation Yrotation 
					JOINT UpperArm_L
					{
						OFFSET 5.34809 0.0 0.0
						CHANNELS 6 Xposition Yposition Zposition Zrotation Xrotation Yrotation 
						JOINT LowerArm_L
						{
							OFFSET 24.3286 1.87007e-05 0.0
							CHANNELS 6 Xposition Yposition Zposition Zrotation Xrotation Yrotation 
							JOINT Hand_L
							{
								OFFSET 22.2916 0.0 0.0
								CHANNELS 6 Xposition Yposition Zposition Zrotation Xrotation Yrotation 
								End Site
								{
									OFFSET 0.0 0.0 0.0
								}
							}
						}
					}
				}
				JOINT Shoulder_R
				{
					OFFSET 12.9945 -0.242716 -4.98039
					CHANNELS 6 Xposition Yposition Zposition Zrotation Xrotation Yrotation 
					JOINT UpperArm_R
					{
						OFFSET -5.34813 0.0 0.0
						CHANNELS 6 Xposition Yposition Zposition Zrotation Xrotation Yrotation 
						JOINT LowerArm_R
						{
							OFFSET -24.3289 0.000322201 0.0
							CHANNELS 6 Xposition Yposition Zposition Zrotation Xrotation Yrotation 
							JOINT Hand_R
							{
								OFFSET -22.2915 -0.000108084 0.0
								CHANNELS 6 Xposition Yposition Zposition Zrotation Xrotation Yrotation 
								End Site
								{
									OFFSET 0.0 0.0 0.0
								}
							}
						}
					}
				}
			}
		}
		JOINT UpperLeg_L
		{
			OFFSET -2.19248 -6.46944 0.0
			CHANNELS 6 Xposition Yposition Zposition Zrotation Xrotation Yrotation 
			JOINT LowerLeg_L
			{
				OFFSET 39.0811 0.0 -1.23785e-05
				CHANNELS 6 Xposition Yposition Zposition Zrotation Xrotation Yrotation 
				JOINT Foot_L
				{
					OFFSET 40.9854 0.0 -1.26872e-05
					CHANNELS 6 Xposition Yposition Zposition Zrotation Xrotation Yrotation 
					JOINT Toes_L
					{
						OFFSET 11.7543 0.0 0.0
						CHANNELS 6 Xposition Yposition Zposition Zrotation Xrotation Yrotation 
						End Site
						{
							OFFSET 0.0 0.0 0.0
						}
					}
				}
			}
		}
		JOINT UpperLeg_R
		{
			OFFSET -2.19251 6.46944 0.0
			CHANNELS 6 Xposition Yposition Zposition Zrotation Xrotation Yrotation 
			JOINT LowerLeg_R
			{
				OFFSET -39.0811 -0.00228153 -0.0401928
				CHANNELS 6 Xposition Yposition Zposition Zrotation Xrotation Yrotation 
				JOINT Foot_R
				{
					OFFSET -40.9854 0.0 0.0
					CHANNELS 6 Xposition Yposition Zposition Zrotation Xrotation Yrotation 
					JOINT Toes_R
					{
						OFFSET -11.7543 0.0 0.0
						CHANNELS 6 Xposition Yposition Zposition Zrotation Xrotation Yrotation 
						End Site
						{
							OFFSET 0.0 0.0 0.0
						}
					}
				}
			}
		}
	}
}
MOTION
Frames:	6
Frame Time:	0.0333333
0.000000 0.000000 0.000000 0.000000 0.000000 -0.000000 -2.048600 93.121100 -1.196830 87.490400 -1.078740 1.422240 15.735700 0.000005 -0.000001 100.006000 86.454300 -98.877900 8.984550 -0.406207 -0.000000 -0.792733 1.147640 2.262610 16.377300 -0.000001 -0.000001 -2.472200 1.706770 -1.189390 6.456720 -0.000001 -0.000000 -0.348490 1.352010 1.363860 12.994200 -0.242716 4.980390 -92.589900 8.340330 -72.680400 5.348090 -0.000007 -0.000001 -68.870400 27.187900 -4.640650 24.328600 0.000019 0.000005 10.468000 33.379700 -18.569700 22.291600 -0.000001 0.000005 -15.398300 5.334430 -1.221110 12.994500 -0.242716 -4.980390 88.389700 6.031890 -75.022600 -5.348130 -0.000001 -0.000004 -67.755100 29.403900 -7.426720 -24.328900 0.000322 -0.000009 1.898320 9.792400 -11.036100 -22.291500 -0.000108 -0.000004 -10.012300 5.229200 2.062800 -2.192480 -6.469440 -0.000000 -172.150000 -7.968930 -1.213500 39.081100 -0.000007 -0.000012 0.020531 -0.069759 16.400000 40.985400 -0.000006 -0.000013 -1.453510 13.136500 -68.935900 11.754300 -0.000000 0.000003 -0.000601 0.177200 -9.389120 -2.192510 6.469440 -0.000001 178.687000 5.289250 179.860000 -39.081100 -0.002282 -0.040193 0.035142 -0.133570 13.395100 -40.985400 0.000008 0.000006 -4.115130 7.488020 -67.757200 -11.754300 -0.000006 -0.000006 -0.008880 0.262738 -5.901240
0.000000 0.000000 0.000000 0.000000 0.000000 -0.000000 -2.020610 93.200600 -1.054430 87.374200 -0.985136 0.268655 15.735700 0.000005 -0.000001 101.981000 86.957200 -100.803000 8.984550 -0.406207 -0.000000 -1.823980 1.164420 2.376000 16.377300 -0.000001 -0.000001 -4.018860 1.326900 -0.801107 6.456720 -0.000001 -0.000000 -2.277630 1.136550 1.192120 12.994200 -0.242716 4.980390 -92.414300 7.951380 -73.049300 5.348090 -0.000007 -0.000001 -64.486400 23.822000 -10.002500 24.328600 0.000019 0.000005 8.641080 38.278600 -13.786200 22.291600 -0.000001 0.000005 -26.243300 5.481120 -5.861170 12.994500 -0.242716 -4.980390 88.614000 5.129920 -74.857400 -5.348130 -0.000001 -0.000004 -64.123400 26.840600 -11.941500 -24.328900 0.000322 -0.000009 1.676410 11.704200 -8.218810 -22.291500 -0.000108 -0.000004 -22.486500 5.138420 4.310330 -2.192480 -6.469440 -0.000000 -172.041000 -9.493660 -1.907040 39.081100 -0.000007 -0.000012 0.013921 -0.049454 15.722300 40.985400 -0.000006 -0.000013 -1.325250 14.567100 -68.942900 11.754300 -0.000000 0.000003 -0.000405 0.174176 -9.511930 -2.192510 6.469440 -0.000001 178.595000 7.095010 179.320000 -39.081100 -0.002282 -0.040193 0.021769 -0.084617 12.290200 -40.985400 0.000008 0.000006 -5.065220 9.263400 -66.735300 -11.754300 -0.000006 -0.000006 -0.008909 0.262964 -5.892010
0.000000 0.000000 0.000000 0.000000 0.000000 -0.000000 -1.966390 93.252900 -0.682980 87.250300 -1.226990 -0.305160 15.735700 0.000005 -0.000001 104.098000 87.488500 -102.814000 8.984550 -0.406207 -0.000000 -2.905660 1.103510 2.595960 16.377300 -0.000001 -0.000001 -4.803840 1.208980 -0.549055 6.456720 -0.000001 -0.000000 -3.444670 1.319580 0.907579 12.994200 -0.242716 4.980390 -92.055900 6.737690 -72.987200 5.348090 -0.000007 -0.000001 -59.750400 16.447100 -15.697300 24.328600 0.000019 0.000005 6.521720 41.324100 -9.823500 22.291600 -0.000001 0.000005 -32.651400 5.449840 -4.602600 12.994500 -0.242716 -4.980390 89.011800 3.533420 -74.363000 -5.348130 -0.000001 -0.000004 -59.274100 21.745400 -17.871100 -24.328900 0.000322 -0.000009 1.436710 13.500500 -6.136710 -22.291500 -0.000108 -0.000004 -31.833900 5.021290 6.898720 -2.192480 -6.469440 -0.000000 -171.903000 -10.554000 -1.751680 39.081100 -0.000007 -0.000012 0.004787 -0.017925 14.952900 40.985400 -0.000006 -0.000013 -1.282910 15.286800 -68.961700 11.754300 -0.000000 0.000003 -0.000379 0.173781 -9.528000 -2.192510 6.469440 -0.000001 178.458000 8.026730 179.552000 -39.081100 -0.002282 -0.040193 0.009830 -0.033196 11.068000 -40.985400 0.000008 0.000006 -6.335850 10.589300 -65.639700 -11.754300 -0.000006 -0.000006 -0.008857 0.262555 -5.908730
0.000000 0.000000 0.000000 0.000000 0.000000 -0.000000 -1.914590 93.290500 -0.172946 87.141100 -1.635480 -0.447758 15.735700 0.000005 -0.000001 105.901000 88.050600 -104.530000 8.984550 -0.406207 -0.000000 -4.026280 0.926439 2.776050 16.377300 -0.000001 -0.000001 -4.739800 1.392100 -0.428142 6.456720 -0.000001 -0.000000 -3.496870 1.739810 1.178610 12.994200 -0.242716 4.980390 -91.716600 5.485310 -72.592000 5.348090 -0.000007 -0.000001 -53.671200 7.963320 -21.607300 24.328600 0.000019 0.000005 5.603320 42.918400 -8.198490 22.291600 -0.000001 0.000005 -29.991100 5.403000 -3.080760 12.994500 -0.242716 -4.980390 89.331300 2.319740 -73.914000 -5.348130 -0.000001 -0.000004 -52.740500 15.486800 -24.287500 -24.328900 0.000322 -0.000009 1.213300 12.768400 -5.478240 -22.291500 -0.000108 -0.000004 -30.052400 4.999840 7.367950 -2.192480 -6.469440 -0.000000 -171.803000 -10.766900 -0.984212 39.081100 -0.000007 -0.000012 0.008717 -0.034845 14.046200 40.985400 -0.000006 -0.000013 -1.351690 15.081600 -68.907000 11.754300 -0.000000 0.000003 -0.000698 0.178647 -9.330320 -2.192510 6.469440 -0.000001 178.315000 7.799790 -179.617000 -39.081100 -0.002282 -0.040193 0.002462 0.005163 9.642100 -40.985400 0.000008 0.000006 -7.905640 10.900100 -64.449900 -11.754300 -0.000006 -0.000006 -0.009022 0.263844 -5.856040
0.000000 0.000000 0.000000 0.000000 0.000000 -0.000000 -1.878990 93.309600 0.499948 87.039800 -2.129870 -0.099991 15.735700 0.000005 -0.000001 108.248000 88.547000 -106.780000 8.984550 -0.406207 -0.000000 -5.014370 0.745388 2.971140 16.377300 -0.000001 -0.000001 -3.953650 1.620730 -0.225750 6.456720 -0.000001 -0.000000 -2.805740 2.276430 1.333360 12.994200 -0.242716 4.980390 -91.390800 4.325840 -72.156700 5.348090 -0.000007 -0.000001 -45.678300 1.257720 -26.918600 24.328600 0.000019 0.000005 5.668230 38.743300 -9.014460 22.291600 -0.000001 0.000005 -21.241400 5.370410 -2.060190 12.994500 -0.242716 -4.980390 89.604200 1.333130 -73.460300 -5.348130 -0.000001 -0.000004 -45.054100 8.841680 -30.792400 -24.328900 0.000322 -0.000009 0.759808 8.205390 -5.317560 -22.291500 -0.000108 -0.000004 -20.036900 5.164260 3.784740 -2.192480 -6.469440 -0.000000 -171.528000 -11.447300 0.546504 39.081100 -0.000007 -0.000012 0.017163 -0.074827 12.918900 40.985400 -0.000006 -0.000013 -1.393900 15.353900 -68.764500 11.754300 -0.000000 0.000003 -0.001197 0.185799 -9.039650 -2.192510 6.469440 -0.000001 178.104000 7.277860 -178.180000 -39.081100 -0.002282 -0.040193 0.000731 0.018174 8.173960 -40.985400 0.000008 0.000006 -9.688610 10.972300 -63.153200 -11.754300 -0.000006 -0.000006 -0.009047 0.264040 -5.848020
0.000000 0.000000 0.000000 0.000000 0.000000 -0.000000 -1.862550 93.295700 1.394660 86.871700 -2.669960 0.584631 15.735700 0.000005 -0.000001 115.048000 88.985200 -113.478000 8.984550 -0.406207 -0.000000 -5.934770 0.670484 3.178580 16.377300 -0.000001 -0.000001 -2.561720 1.902290 -0.002514 6.456720 -0.000001 -0.000000 -1.849980 2.725420 1.569570 12.994200 -0.242716 4.980390 -91.027200 3.046240 -71.352600 5.348090 -0.000007 -0.000001 -37.376400 -5.376540 -32.060400 24.328600 0.000019 0.000005 5.165130 31.949100 -9.695460 22.291600 -0.000001 0.000005 -9.528670 5.334670 -0.987584 12.994500 -0.242716 -4.980390 89.877500 0.395436 -72.770000 -5.348130 -0.000001 -0.000004 -37.697500 1.092730 -36.720300 -24.328900 0.000322 -0.000009 0.262117 2.513750 -5.995800 -22.291500 -0.000108 -0.000004 -7.505600 5.338160 -0.827299 -2.192480 -6.469440 -0.000000 -170.878000 -12.059500 2.403300 39.081100 -0.000007 -0.000012 0.002085 -0.009771 12.050700 40.985400 -0.000006 -0.000013 -2.884770 15.941300 -67.924600 11.754300 -0.000000 0.000003 -0.001111 0.184604 -9.088240 -2.192510 6.469440 -0.000001 178.083000 6.986330 -177.522000 -39.081100 -0.002282 -0.040193 -0.002420 0.035538 9.206360 -40.985400 0.000008 0.000006 -9.641490 11.227700 -63.304200 -11.754300 -0.000006 -0.000006 -0.008370 0.258694 -6.066500
